<svg xmlns="http://www.w3.org/2000/svg" xmlns:xlink="http://www.w3.org/1999/xlink" width="500" zoomAndPan="magnify" viewBox="0 0 375 374.999991" height="500" preserveAspectRatio="xMidYMid meet" version="1.0"><defs><g/><clipPath id="7ac6b80470"><path d="M 113 133.023438 L 261 133.023438 L 261 233 L 113 233 Z M 113 133.023438 " clip-rule="nonzero"/></clipPath><clipPath id="301baa8ee2"><path d="M 112.5 133.023438 L 262 133.023438 L 262 234 L 112.5 234 Z M 112.5 133.023438 " clip-rule="nonzero"/></clipPath><clipPath id="94dee96d0c"><path d="M 112.5 150 L 123 150 L 123 153 L 112.5 153 Z M 112.5 150 " clip-rule="nonzero"/></clipPath><clipPath id="df0bc855b0"><path d="M 112.5 159 L 121 159 L 121 162 L 112.5 162 Z M 112.5 159 " clip-rule="nonzero"/></clipPath><clipPath id="afba5c5e61"><path d="M 112.5 165 L 125 165 L 125 167 L 112.5 167 Z M 112.5 165 " clip-rule="nonzero"/></clipPath><clipPath id="e926b6e9f0"><path d="M 112.5 168 L 129 168 L 129 172 L 112.5 172 Z M 112.5 168 " clip-rule="nonzero"/></clipPath></defs><rect x="-37.5" width="450" fill="#ffffff" y="-37.499999" height="449.999989" fill-opacity="1"/><rect x="-37.5" width="450" fill="#ffffff" y="-37.499999" height="449.999989" fill-opacity="1"/><rect x="-37.5" width="450" fill="#ffffff" y="-37.499999" height="449.999989" fill-opacity="1"/><g clip-path="url(#7ac6b80470)"><path fill="#7f4ba3" d="M 236.980469 133.796875 C 205.304688 133.796875 173.640625 135.246094 141.945312 135.023438 C 132.664062 134.957031 113.300781 133.507812 113.273438 142.597656 C 113.21875 159.742188 114.457031 198.179688 116.769531 227.46875 C 117.542969 237.277344 250.945312 230.449219 255.023438 229.050781 C 257.191406 228.308594 259.382812 228.660156 260.386719 226.019531 C 261.292969 223.648438 260.675781 167.777344 260.675781 157.578125 C 260.675781 149.917969 262.410156 137.859375 255.472656 134.957031 C 251.167969 133.15625 241.664062 133.796875 236.980469 133.796875 " fill-opacity="1" fill-rule="nonzero"/></g><g clip-path="url(#301baa8ee2)"><path fill="#170b08" d="M 236.980469 133.796875 L 236.980469 133.136719 C 207.558594 133.136719 178.164062 134.386719 148.765625 134.386719 C 146.492188 134.386719 144.222656 134.378906 141.953125 134.363281 C 139.609375 134.347656 136.59375 134.242188 133.40625 134.242188 C 128.714844 134.242188 123.652344 134.464844 119.671875 135.570312 C 117.683594 136.125 115.953125 136.902344 114.675781 138.042969 C 114.042969 138.613281 113.523438 139.277344 113.164062 140.039062 C 112.808594 140.800781 112.617188 141.660156 112.613281 142.59375 C 112.613281 142.957031 112.613281 143.332031 112.613281 143.714844 C 112.613281 161.390625 113.847656 198.824219 116.113281 227.523438 C 116.144531 227.921875 116.316406 228.292969 116.5625 228.59375 C 117.03125 229.164062 117.742188 229.574219 118.667969 229.953125 C 120.289062 230.609375 122.621094 231.128906 125.578125 231.5625 C 134.433594 232.851562 148.855469 233.324219 164.960938 233.324219 C 184.433594 233.324219 206.347656 232.628906 223.703125 231.832031 C 232.378906 231.429688 239.914062 231.003906 245.441406 230.625 C 248.203125 230.4375 250.460938 230.257812 252.113281 230.101562 C 252.9375 230.023438 253.613281 229.949219 254.125 229.882812 C 254.382812 229.847656 254.597656 229.816406 254.777344 229.785156 C 254.960938 229.75 255.097656 229.722656 255.238281 229.675781 C 256.226562 229.332031 257.300781 229.234375 258.359375 228.867188 C 258.886719 228.683594 259.410156 228.414062 259.875 227.988281 C 260.335938 227.566406 260.71875 226.996094 261 226.257812 C 261.054688 226.109375 261.078125 225.984375 261.105469 225.828125 C 261.148438 225.535156 261.1875 225.144531 261.222656 224.636719 C 261.34375 222.878906 261.421875 219.765625 261.46875 215.777344 C 261.519531 211.789062 261.535156 206.9375 261.535156 201.742188 C 261.535156 184.503906 261.332031 163.449219 261.332031 157.578125 C 261.332031 155.058594 261.523438 152.007812 261.523438 148.953125 C 261.523438 145.894531 261.335938 142.828125 260.53125 140.214844 C 260.128906 138.90625 259.570312 137.710938 258.785156 136.703125 C 258.003906 135.691406 256.988281 134.875 255.726562 134.347656 C 254.363281 133.78125 252.613281 133.460938 250.683594 133.273438 C 248.753906 133.082031 246.644531 133.027344 244.601562 133.027344 C 241.691406 133.027344 238.902344 133.136719 236.980469 133.136719 L 236.980469 134.457031 C 238.949219 134.457031 241.722656 134.347656 244.601562 134.347656 C 246.621094 134.347656 248.691406 134.402344 250.554688 134.582031 C 252.414062 134.765625 254.070312 135.082031 255.222656 135.566406 C 256.269531 136.007812 257.085938 136.664062 257.75 137.511719 C 258.742188 138.785156 259.367188 140.511719 259.734375 142.492188 C 260.101562 144.472656 260.210938 146.703125 260.210938 148.953125 C 260.210938 151.957031 260.019531 154.992188 260.019531 157.578125 C 260.019531 163.464844 260.222656 184.511719 260.222656 201.742188 C 260.222656 208.074219 260.195312 213.890625 260.121094 218.242188 C 260.082031 220.417969 260.03125 222.230469 259.96875 223.550781 C 259.9375 224.214844 259.902344 224.75 259.863281 225.144531 C 259.84375 225.339844 259.824219 225.5 259.804688 225.617188 C 259.796875 225.675781 259.789062 225.722656 259.78125 225.75 L 259.773438 225.785156 L 259.769531 225.789062 L 259.859375 225.820312 L 259.773438 225.785156 L 259.769531 225.789062 L 259.859375 225.820312 L 259.773438 225.785156 C 259.550781 226.367188 259.285156 226.742188 258.984375 227.019531 C 258.761719 227.222656 258.511719 227.378906 258.222656 227.507812 C 257.789062 227.699219 257.273438 227.824219 256.691406 227.949219 C 256.113281 228.074219 255.476562 228.199219 254.8125 228.425781 C 254.800781 228.433594 254.695312 228.460938 254.546875 228.484375 C 253.957031 228.59375 252.664062 228.738281 250.832031 228.894531 C 237.949219 230.007812 197.921875 232.007812 164.960938 232.007812 C 151.898438 232.007812 139.9375 231.691406 131.234375 230.890625 C 126.886719 230.488281 123.347656 229.964844 120.921875 229.308594 C 119.714844 228.984375 118.78125 228.621094 118.195312 228.261719 C 117.90625 228.082031 117.699219 227.910156 117.585938 227.761719 C 117.464844 227.613281 117.433594 227.511719 117.421875 227.417969 C 115.164062 198.773438 113.925781 161.339844 113.925781 143.714844 C 113.925781 143.332031 113.925781 142.960938 113.929688 142.601562 C 113.933594 141.839844 114.082031 141.183594 114.355469 140.597656 C 114.832031 139.578125 115.703125 138.742188 116.933594 138.058594 C 118.765625 137.03125 121.367188 136.390625 124.265625 136.023438 C 127.164062 135.65625 130.359375 135.558594 133.40625 135.558594 C 136.566406 135.558594 139.570312 135.664062 141.941406 135.683594 C 144.214844 135.699219 146.488281 135.707031 148.765625 135.707031 C 178.199219 135.707031 207.59375 134.457031 236.980469 134.457031 L 236.980469 133.796875 " fill-opacity="1" fill-rule="nonzero"/></g><path fill="#61cac4" d="M 252.777344 199.449219 C 252.804688 206.511719 246.941406 206.804688 239.703125 206.835938 L 136.746094 207.28125 C 129.507812 207.308594 123.640625 207.070312 123.609375 200.007812 L 123.511719 176.890625 C 123.480469 169.828125 129.347656 169.25 136.585938 169.222656 L 239.539062 168.777344 C 246.78125 168.746094 252.648438 169.269531 252.679688 176.335938 L 252.777344 199.449219 " fill-opacity="1" fill-rule="nonzero"/><path fill="#170b08" d="M 252.777344 199.449219 L 252.121094 199.449219 L 252.121094 199.503906 C 252.121094 201.167969 251.777344 202.359375 251.199219 203.242188 C 250.765625 203.902344 250.195312 204.410156 249.472656 204.808594 C 248.394531 205.414062 246.964844 205.761719 245.296875 205.949219 C 243.628906 206.140625 241.722656 206.167969 239.699219 206.179688 L 136.742188 206.621094 C 136.464844 206.621094 136.191406 206.621094 135.921875 206.621094 C 134.214844 206.621094 132.609375 206.59375 131.175781 206.445312 C 130.101562 206.335938 129.125 206.15625 128.273438 205.886719 C 126.996094 205.480469 126.023438 204.878906 125.351562 203.976562 C 124.683594 203.070312 124.277344 201.820312 124.265625 200.003906 L 124.167969 176.886719 L 124.167969 176.835938 C 124.167969 175.171875 124.511719 173.960938 125.089844 173.046875 C 125.527344 172.363281 126.105469 171.832031 126.828125 171.40625 C 127.910156 170.765625 129.335938 170.378906 131 170.160156 C 132.667969 169.941406 134.566406 169.890625 136.585938 169.882812 L 239.542969 169.4375 C 239.722656 169.4375 239.902344 169.4375 240.078125 169.4375 C 241.8125 169.4375 243.453125 169.476562 244.917969 169.644531 C 246.015625 169.769531 247.019531 169.960938 247.890625 170.253906 C 249.199219 170.6875 250.203125 171.328125 250.898438 172.265625 C 251.59375 173.210938 252.011719 174.496094 252.019531 176.335938 L 252.121094 199.453125 L 252.121094 199.449219 L 252.777344 199.449219 L 253.433594 199.445312 L 253.335938 176.332031 C 253.328125 174.523438 252.953125 173.058594 252.238281 171.902344 C 251.703125 171.035156 250.984375 170.351562 250.140625 169.835938 C 248.875 169.0625 247.339844 168.644531 245.636719 168.40625 C 243.9375 168.171875 242.054688 168.117188 240.078125 168.117188 C 239.898438 168.117188 239.71875 168.117188 239.535156 168.121094 L 136.582031 168.5625 C 132.953125 168.582031 129.628906 168.710938 127.078125 169.804688 C 125.808594 170.351562 124.726562 171.167969 123.984375 172.335938 C 123.238281 173.507812 122.851562 174.996094 122.851562 176.835938 L 122.851562 176.894531 L 122.953125 200.007812 C 122.960938 201.792969 123.324219 203.226562 124.023438 204.355469 C 124.546875 205.203125 125.253906 205.859375 126.078125 206.351562 C 127.320312 207.09375 128.816406 207.476562 130.480469 207.691406 C 132.144531 207.902344 133.984375 207.941406 135.921875 207.941406 C 136.195312 207.941406 136.46875 207.941406 136.75 207.9375 L 239.703125 207.496094 C 241.515625 207.488281 243.25 207.464844 244.851562 207.320312 C 246.050781 207.210938 247.175781 207.035156 248.199219 206.738281 C 248.96875 206.515625 249.683594 206.226562 250.328125 205.839844 C 251.289062 205.261719 252.089844 204.457031 252.621094 203.402344 C 253.160156 202.347656 253.433594 201.058594 253.433594 199.503906 L 253.433594 199.445312 L 252.777344 199.449219 " fill-opacity="1" fill-rule="nonzero"/><path fill="#7f4ba3" d="M 234.503906 190.730469 C 234.503906 193.609375 232.179688 195.941406 229.308594 195.941406 L 151.722656 195.941406 C 148.851562 195.941406 146.527344 193.609375 146.527344 190.730469 L 146.527344 183.683594 C 146.527344 180.800781 148.851562 178.46875 151.722656 178.46875 L 229.308594 178.46875 C 232.179688 178.46875 234.503906 180.800781 234.503906 183.683594 L 234.503906 190.730469 " fill-opacity="1" fill-rule="nonzero"/><path fill="#170b08" d="M 234.503906 190.730469 L 233.847656 190.730469 C 233.847656 191.988281 233.339844 193.125 232.519531 193.949219 C 231.695312 194.773438 230.566406 195.285156 229.308594 195.285156 L 151.722656 195.285156 C 150.464844 195.285156 149.335938 194.773438 148.511719 193.949219 C 147.691406 193.125 147.183594 191.988281 147.183594 190.730469 L 147.183594 183.683594 C 147.183594 182.421875 147.691406 181.289062 148.511719 180.460938 C 149.335938 179.636719 150.464844 179.128906 151.722656 179.125 L 229.308594 179.125 C 230.566406 179.128906 231.695312 179.636719 232.519531 180.460938 C 233.339844 181.289062 233.847656 182.421875 233.847656 183.683594 L 233.847656 190.730469 L 235.164062 190.730469 L 235.164062 183.683594 C 235.160156 180.4375 232.542969 177.808594 229.308594 177.808594 L 151.722656 177.808594 C 148.488281 177.808594 145.867188 180.4375 145.867188 183.683594 L 145.867188 190.730469 C 145.867188 193.972656 148.488281 196.601562 151.722656 196.601562 L 229.308594 196.601562 C 232.542969 196.601562 235.160156 193.972656 235.164062 190.730469 L 234.503906 190.730469 " fill-opacity="1" fill-rule="nonzero"/><path fill="#f5dd18" d="M 253.164062 156.851562 C 253.164062 162.058594 248.960938 166.277344 243.769531 166.277344 L 131.074219 166.277344 C 125.886719 166.277344 121.679688 162.058594 121.679688 156.851562 C 121.679688 151.644531 125.886719 147.425781 131.074219 147.425781 L 243.769531 147.425781 C 248.960938 147.425781 253.164062 151.644531 253.164062 156.851562 " fill-opacity="1" fill-rule="nonzero"/><path fill="#170b08" d="M 253.164062 156.851562 L 252.507812 156.851562 C 252.503906 159.273438 251.53125 161.460938 249.949219 163.050781 C 248.367188 164.636719 246.1875 165.617188 243.773438 165.617188 L 131.074219 165.617188 C 128.660156 165.617188 126.480469 164.636719 124.898438 163.050781 C 123.316406 161.460938 122.339844 159.273438 122.339844 156.851562 C 122.339844 154.429688 123.316406 152.242188 124.898438 150.652344 C 126.480469 149.066406 128.660156 148.085938 131.074219 148.085938 L 243.773438 148.085938 C 246.1875 148.085938 248.367188 149.066406 249.949219 150.652344 C 251.53125 152.242188 252.503906 154.429688 252.507812 156.851562 L 253.820312 156.851562 C 253.820312 151.28125 249.320312 146.769531 243.773438 146.765625 L 131.074219 146.765625 C 125.523438 146.769531 121.023438 151.28125 121.023438 156.851562 C 121.023438 162.421875 125.523438 166.9375 131.074219 166.9375 L 243.773438 166.9375 C 249.320312 166.9375 253.820312 162.421875 253.820312 156.851562 L 253.164062 156.851562 " fill-opacity="1" fill-rule="nonzero"/><path fill="#170b08" d="M 184.878906 186 C 184.878906 199.535156 173.945312 210.503906 160.460938 210.503906 C 146.972656 210.503906 136.042969 199.535156 136.042969 186 C 136.042969 172.464844 146.972656 161.492188 160.460938 161.492188 C 173.945312 161.492188 184.878906 172.464844 184.878906 186 " fill-opacity="1" fill-rule="nonzero"/><path fill="#ffffff" d="M 172.019531 186 C 172.019531 192.40625 166.84375 197.597656 160.460938 197.597656 C 154.074219 197.597656 148.902344 192.40625 148.902344 186 C 148.902344 179.59375 154.074219 174.398438 160.460938 174.398438 C 166.84375 174.398438 172.019531 179.59375 172.019531 186 " fill-opacity="1" fill-rule="nonzero"/><path fill="#170b08" d="M 172.019531 186 L 171.363281 186 C 171.359375 189.023438 170.140625 191.753906 168.167969 193.734375 C 166.191406 195.71875 163.472656 196.941406 160.460938 196.941406 C 157.445312 196.941406 154.726562 195.71875 152.75 193.734375 C 150.777344 191.753906 149.558594 189.023438 149.558594 186 C 149.558594 182.976562 150.777344 180.246094 152.75 178.261719 C 154.726562 176.28125 157.445312 175.058594 160.460938 175.058594 C 163.472656 175.058594 166.191406 176.28125 168.167969 178.261719 C 170.140625 180.246094 171.359375 182.976562 171.363281 186 L 172.675781 186 C 172.675781 179.226562 167.203125 173.738281 160.460938 173.738281 C 153.710938 173.738281 148.246094 179.226562 148.242188 186 C 148.246094 192.769531 153.710938 198.257812 160.460938 198.257812 C 167.203125 198.257812 172.675781 192.769531 172.675781 186 L 172.019531 186 " fill-opacity="1" fill-rule="nonzero"/><path fill="#170b08" d="M 166.902344 186 L 166.246094 186 C 166.246094 187.605469 165.597656 189.054688 164.550781 190.105469 C 163.5 191.160156 162.058594 191.808594 160.460938 191.808594 C 158.859375 191.808594 157.417969 191.160156 156.367188 190.105469 C 155.316406 189.054688 154.671875 187.605469 154.671875 186 C 154.671875 184.394531 155.316406 182.945312 156.367188 181.894531 C 157.417969 180.839844 158.859375 180.191406 160.460938 180.191406 C 162.058594 180.191406 163.503906 180.839844 164.550781 181.894531 C 165.597656 182.945312 166.246094 184.394531 166.246094 186 L 167.558594 186 C 167.558594 182.0625 164.382812 178.875 160.460938 178.871094 C 156.535156 178.875 153.359375 182.0625 153.359375 186 C 153.359375 189.933594 156.535156 193.125 160.460938 193.125 C 164.382812 193.125 167.558594 189.933594 167.558594 186 L 166.902344 186 " fill-opacity="1" fill-rule="nonzero"/><path fill="#170b08" d="M 238.320312 186 C 238.320312 196.160156 230.113281 204.398438 219.988281 204.398438 C 209.859375 204.398438 201.65625 196.160156 201.65625 186 C 201.65625 175.839844 209.859375 167.601562 219.988281 167.601562 C 230.113281 167.601562 238.320312 175.839844 238.320312 186 " fill-opacity="1" fill-rule="nonzero"/><path fill="#ffffff" d="M 228.667969 186 C 228.667969 190.8125 224.777344 194.710938 219.988281 194.710938 C 215.195312 194.710938 211.308594 190.8125 211.308594 186 C 211.308594 181.1875 215.195312 177.289062 219.988281 177.289062 C 224.777344 177.289062 228.667969 181.1875 228.667969 186 " fill-opacity="1" fill-rule="nonzero"/><path fill="#170b08" d="M 228.667969 186 L 228.007812 186 C 228.007812 188.226562 227.113281 190.234375 225.660156 191.691406 C 224.207031 193.152344 222.203125 194.050781 219.988281 194.050781 C 217.769531 194.050781 215.769531 193.152344 214.316406 191.691406 C 212.863281 190.234375 211.96875 188.226562 211.964844 186 C 211.96875 183.773438 212.863281 181.765625 214.316406 180.308594 C 215.769531 178.851562 217.769531 177.949219 219.988281 177.949219 C 222.203125 177.949219 224.207031 178.851562 225.660156 180.308594 C 227.113281 181.765625 228.007812 183.773438 228.007812 186 L 229.324219 186 C 229.324219 180.824219 225.140625 176.632812 219.988281 176.632812 C 214.832031 176.632812 210.652344 180.824219 210.652344 186 C 210.652344 191.175781 214.832031 195.367188 219.988281 195.367188 C 225.140625 195.367188 229.324219 191.175781 229.324219 186 L 228.667969 186 " fill-opacity="1" fill-rule="nonzero"/><path fill="#170b08" d="M 224.824219 186 L 224.167969 186 C 224.167969 187.160156 223.703125 188.207031 222.945312 188.964844 C 222.183594 189.726562 221.144531 190.195312 219.988281 190.195312 C 218.828125 190.195312 217.789062 189.726562 217.03125 188.964844 C 216.269531 188.207031 215.804688 187.160156 215.804688 186 C 215.804688 184.839844 216.269531 183.792969 217.03125 183.03125 C 217.789062 182.269531 218.828125 181.800781 219.988281 181.800781 C 221.144531 181.800781 222.183594 182.269531 222.945312 183.03125 C 223.703125 183.792969 224.167969 184.839844 224.167969 186 L 225.480469 186 C 225.480469 182.953125 223.023438 180.484375 219.988281 180.484375 C 216.953125 180.484375 214.492188 182.953125 214.492188 186 C 214.492188 189.046875 216.953125 191.515625 219.988281 191.515625 C 223.023438 191.515625 225.480469 189.046875 225.480469 186 L 224.824219 186 " fill-opacity="1" fill-rule="nonzero"/><path fill="#ee1b58" d="M 231.144531 230.808594 C 227.921875 216.59375 217.78125 210.617188 181.789062 212.679688 C 150.351562 214.484375 147.359375 226.964844 147.582031 232.441406 C 172.816406 233.164062 207.984375 232.003906 231.144531 230.808594 " fill-opacity="1" fill-rule="nonzero"/><path fill="#170b08" d="M 231.144531 230.808594 L 231.785156 230.660156 C 231.070312 227.507812 230.015625 224.71875 228.402344 222.316406 C 227.191406 220.515625 225.667969 218.933594 223.765625 217.589844 C 220.910156 215.570312 217.207031 214.082031 212.410156 213.097656 C 207.605469 212.109375 201.695312 211.625 194.390625 211.625 C 190.570312 211.625 186.371094 211.757812 181.75 212.023438 C 166.445312 212.902344 157.753906 216.292969 152.84375 220.292969 C 150.394531 222.292969 148.902344 224.449219 148.03125 226.480469 C 147.164062 228.507812 146.914062 230.40625 146.914062 231.90625 C 146.914062 232.101562 146.917969 232.289062 146.925781 232.46875 C 146.941406 232.816406 147.21875 233.089844 147.566406 233.101562 C 152.988281 233.253906 158.863281 233.324219 164.980469 233.324219 C 187.371094 233.324219 212.980469 232.40625 231.179688 231.464844 C 231.375 231.457031 231.550781 231.359375 231.667969 231.203125 C 231.785156 231.046875 231.828125 230.851562 231.785156 230.660156 L 231.144531 230.808594 L 231.113281 230.148438 C 212.929688 231.085938 187.335938 232.003906 164.980469 232.003906 C 158.875 232.003906 153.007812 231.9375 147.601562 231.78125 L 147.582031 232.441406 L 148.238281 232.414062 C 148.234375 232.25 148.230469 232.082031 148.230469 231.90625 C 148.230469 230.550781 148.453125 228.835938 149.238281 227 C 150.421875 224.246094 152.867188 221.183594 157.878906 218.613281 C 162.886719 216.042969 170.464844 213.988281 181.824219 213.339844 C 186.425781 213.074219 190.601562 212.941406 194.390625 212.941406 C 200.832031 212.941406 206.152344 213.324219 210.542969 214.085938 C 217.128906 215.226562 221.59375 217.207031 224.664062 219.988281 C 226.199219 221.382812 227.398438 222.980469 228.34375 224.800781 C 229.292969 226.621094 229.988281 228.671875 230.503906 230.953125 L 231.144531 230.808594 L 231.113281 230.148438 L 231.144531 230.808594 " fill-opacity="1" fill-rule="nonzero"/><path fill="#170b08" d="M 124.859375 144.960938 C 124.859375 146.804688 123.371094 148.296875 121.535156 148.296875 C 119.703125 148.296875 118.214844 146.804688 118.214844 144.960938 C 118.214844 143.121094 119.703125 141.628906 121.535156 141.628906 C 123.371094 141.628906 124.859375 143.121094 124.859375 144.960938 " fill-opacity="1" fill-rule="nonzero"/><path fill="#170b08" d="M 126.449219 222.542969 C 126.449219 224.382812 124.960938 225.875 123.125 225.875 C 121.292969 225.875 119.804688 224.382812 119.804688 222.542969 C 119.804688 220.699219 121.292969 219.207031 123.125 219.207031 C 124.960938 219.207031 126.449219 220.699219 126.449219 222.542969 " fill-opacity="1" fill-rule="nonzero"/><path fill="#170b08" d="M 255.910156 220.511719 C 255.910156 222.351562 254.417969 223.847656 252.585938 223.847656 C 250.75 223.847656 249.261719 222.351562 249.261719 220.511719 C 249.261719 218.667969 250.75 217.175781 252.585938 217.175781 C 254.417969 217.175781 255.910156 218.667969 255.910156 220.511719 " fill-opacity="1" fill-rule="nonzero"/><path fill="#170b08" d="M 257.640625 143.078125 C 257.640625 144.921875 256.152344 146.414062 254.316406 146.414062 C 252.480469 146.414062 250.996094 144.921875 250.996094 143.078125 C 250.996094 141.234375 252.480469 139.742188 254.316406 139.742188 C 256.152344 139.742188 257.640625 141.234375 257.640625 143.078125 " fill-opacity="1" fill-rule="nonzero"/><path fill="#170b08" d="M 113.496094 141.308594 L 145.070312 138.816406 L 113.578125 142.183594 C 113.335938 142.207031 113.121094 142.035156 113.09375 141.792969 C 113.070312 141.550781 113.242188 141.335938 113.484375 141.308594 L 113.496094 141.308594 " fill-opacity="1" fill-rule="nonzero"/><path fill="#170b08" d="M 113.449219 145.851562 L 139.558594 143.355469 L 113.546875 146.722656 C 113.308594 146.753906 113.089844 146.585938 113.054688 146.34375 C 113.027344 146.101562 113.195312 145.882812 113.433594 145.851562 L 113.449219 145.851562 " fill-opacity="1" fill-rule="nonzero"/><g clip-path="url(#94dee96d0c)"><path fill="#170b08" d="M 113.339844 151.125 L 122.296875 150.535156 L 113.441406 151.996094 C 113.199219 152.039062 112.976562 151.875 112.9375 151.632812 C 112.898438 151.394531 113.058594 151.167969 113.296875 151.128906 L 113.339844 151.125 " fill-opacity="1" fill-rule="nonzero"/></g><path fill="#170b08" d="M 113.476562 155.667969 L 119.960938 155.222656 L 113.59375 156.539062 C 113.359375 156.585938 113.125 156.433594 113.078125 156.195312 C 113.027344 155.957031 113.179688 155.726562 113.417969 155.675781 L 113.476562 155.667969 " fill-opacity="1" fill-rule="nonzero"/><g clip-path="url(#df0bc855b0)"><path fill="#170b08" d="M 113.035156 160.503906 L 120.105469 159.914062 L 113.160156 161.375 C 112.925781 161.421875 112.691406 161.269531 112.640625 161.03125 C 112.59375 160.792969 112.746094 160.5625 112.980469 160.511719 L 113.035156 160.503906 " fill-opacity="1" fill-rule="nonzero"/></g><g clip-path="url(#afba5c5e61)"><path fill="#170b08" d="M 113.34375 166.070312 L 124.195312 165.332031 L 113.4375 166.941406 C 113.199219 166.976562 112.976562 166.8125 112.941406 166.570312 C 112.902344 166.332031 113.070312 166.109375 113.308594 166.074219 L 113.34375 166.070312 " fill-opacity="1" fill-rule="nonzero"/></g><g clip-path="url(#e926b6e9f0)"><path fill="#170b08" d="M 113.339844 170.316406 L 128.425781 168.996094 L 113.441406 171.191406 C 113.203125 171.226562 112.980469 171.058594 112.945312 170.820312 C 112.910156 170.578125 113.074219 170.355469 113.316406 170.320312 L 113.339844 170.316406 " fill-opacity="1" fill-rule="nonzero"/></g><path fill="#170b08" d="M 114.078125 175.738281 L 121.859375 175.441406 L 114.160156 176.613281 C 113.921875 176.648438 113.699219 176.484375 113.664062 176.242188 C 113.625 176.003906 113.792969 175.777344 114.03125 175.742188 L 114.078125 175.738281 " fill-opacity="1" fill-rule="nonzero"/><path fill="#170b08" d="M 113.796875 180.574219 L 121.566406 180.425781 L 113.863281 181.449219 C 113.621094 181.480469 113.402344 181.308594 113.371094 181.070312 C 113.335938 180.828125 113.507812 180.609375 113.746094 180.574219 L 113.796875 180.574219 " fill-opacity="1" fill-rule="nonzero"/><path fill="#170b08" d="M 114.25 185.40625 L 121.710938 185.550781 L 114.285156 186.285156 C 114.042969 186.308594 113.828125 186.132812 113.804688 185.890625 C 113.78125 185.648438 113.957031 185.433594 114.199219 185.410156 L 114.25 185.40625 " fill-opacity="1" fill-rule="nonzero"/><path fill="#170b08" d="M 114.375 190.097656 L 122.734375 189.800781 L 114.449219 190.972656 C 114.210938 191.003906 113.988281 190.835938 113.957031 190.597656 C 113.921875 190.355469 114.089844 190.132812 114.328125 190.101562 L 114.375 190.097656 " fill-opacity="1" fill-rule="nonzero"/><path fill="#170b08" d="M 114.550781 194.488281 L 121.128906 194.78125 L 114.570312 195.367188 C 114.328125 195.390625 114.113281 195.210938 114.09375 194.96875 C 114.070312 194.726562 114.25 194.511719 114.492188 194.492188 L 114.550781 194.488281 " fill-opacity="1" fill-rule="nonzero"/><path fill="#170b08" d="M 114.832031 199.324219 L 122.148438 199.472656 L 114.867188 200.203125 C 114.628906 200.226562 114.414062 200.050781 114.386719 199.808594 C 114.363281 199.566406 114.539062 199.351562 114.78125 199.328125 L 114.832031 199.324219 " fill-opacity="1" fill-rule="nonzero"/><path fill="#170b08" d="M 115.113281 204.304688 L 122.003906 204.304688 L 115.171875 205.183594 C 114.929688 205.214844 114.710938 205.042969 114.679688 204.804688 C 114.648438 204.5625 114.820312 204.339844 115.058594 204.308594 L 115.113281 204.304688 " fill-opacity="1" fill-rule="nonzero"/><path fill="#170b08" d="M 115.285156 208.703125 L 139.960938 208.847656 L 115.292969 209.582031 C 115.050781 209.585938 114.851562 209.398438 114.84375 209.152344 C 114.835938 208.910156 115.027344 208.707031 115.269531 208.703125 L 115.285156 208.703125 " fill-opacity="1" fill-rule="nonzero"/><path fill="#170b08" d="M 115.710938 213.390625 L 137.039062 212.949219 L 115.746094 214.265625 C 115.503906 214.285156 115.296875 214.097656 115.28125 213.855469 C 115.265625 213.613281 115.449219 213.40625 115.691406 213.390625 L 115.710938 213.390625 " fill-opacity="1" fill-rule="nonzero"/><path fill="#170b08" d="M 116.144531 217.347656 L 126.238281 217.34375 L 116.183594 218.222656 C 115.941406 218.246094 115.730469 218.066406 115.710938 217.824219 C 115.6875 217.582031 115.867188 217.367188 116.109375 217.347656 L 116.144531 217.347656 " fill-opacity="1" fill-rule="nonzero"/><path fill="#170b08" d="M 116.730469 222.328125 L 141.273438 221.742188 L 116.765625 223.207031 C 116.527344 223.21875 116.316406 223.035156 116.304688 222.792969 C 116.289062 222.550781 116.472656 222.34375 116.714844 222.328125 L 116.730469 222.328125 " fill-opacity="1" fill-rule="nonzero"/><path fill="#170b08" d="M 116.34375 225.40625 L 141.273438 227.746094 L 116.277344 226.28125 C 116.035156 226.265625 115.851562 226.058594 115.867188 225.816406 C 115.878906 225.574219 116.085938 225.390625 116.328125 225.402344 L 116.34375 225.40625 " fill-opacity="1" fill-rule="nonzero"/><path fill="#170b08" d="M 258.425781 163.496094 L 258.425781 211.191406 L 257.550781 163.507812 C 257.546875 163.265625 257.738281 163.0625 257.980469 163.058594 C 258.222656 163.054688 258.421875 163.246094 258.425781 163.492188 L 258.425781 163.496094 " fill-opacity="1" fill-rule="nonzero"/><path fill="#170b08" d="M 200.394531 214.707031 C 200.394531 214.707031 200.910156 214.710938 201.792969 214.761719 C 202.675781 214.808594 203.933594 214.914062 205.433594 215.109375 C 206.183594 215.203125 206.992188 215.328125 207.84375 215.480469 C 208.695312 215.640625 209.59375 215.8125 210.511719 216.039062 C 211.429688 216.253906 212.371094 216.515625 213.320312 216.804688 C 214.265625 217.109375 215.222656 217.433594 216.152344 217.820312 C 217.089844 218.1875 218 218.625 218.882812 219.082031 C 219.324219 219.308594 219.746094 219.566406 220.167969 219.800781 C 220.578125 220.066406 220.988281 220.316406 221.378906 220.585938 C 222.152344 221.128906 222.875 221.691406 223.511719 222.277344 C 224.15625 222.859375 224.714844 223.457031 225.203125 224.03125 C 225.4375 224.328125 225.660156 224.613281 225.875 224.882812 C 226.066406 225.171875 226.246094 225.441406 226.417969 225.695312 C 226.757812 226.207031 226.984375 226.695312 227.207031 227.070312 C 227.566406 227.875 227.769531 228.332031 227.769531 228.332031 C 227.769531 228.332031 227.550781 227.882812 227.171875 227.089844 C 226.941406 226.71875 226.703125 226.238281 226.351562 225.742188 C 226.171875 225.492188 225.988281 225.226562 225.789062 224.949219 C 225.570312 224.683594 225.339844 224.410156 225.101562 224.121094 C 224.597656 223.566406 224.03125 222.984375 223.378906 222.429688 C 222.730469 221.867188 222 221.332031 221.222656 220.816406 C 220.832031 220.5625 220.421875 220.324219 220.011719 220.074219 C 219.585938 219.855469 219.164062 219.613281 218.722656 219.398438 C 217.839844 218.972656 216.929688 218.566406 215.992188 218.230469 C 215.066406 217.871094 214.113281 217.578125 213.171875 217.304688 C 212.230469 217.046875 211.292969 216.8125 210.378906 216.625 C 209.46875 216.425781 208.578125 216.28125 207.734375 216.148438 C 206.890625 216.023438 206.089844 215.921875 205.347656 215.84375 C 203.863281 215.691406 202.621094 215.625 201.753906 215.601562 C 200.882812 215.574219 200.398438 215.585938 200.398438 215.585938 C 200.160156 215.59375 199.957031 215.402344 199.953125 215.15625 C 199.945312 214.914062 200.136719 214.714844 200.378906 214.707031 L 200.394531 214.707031 " fill-opacity="1" fill-rule="nonzero"/><path fill="#170b08" d="M 151.128906 229.652344 C 151.128906 229.652344 154.234375 229.671875 158.894531 229.699219 C 161.226562 229.707031 163.945312 229.71875 166.859375 229.726562 C 169.769531 229.722656 172.878906 229.722656 175.984375 229.71875 C 179.09375 229.714844 182.199219 229.699219 185.113281 229.660156 C 186.570312 229.644531 187.976562 229.628906 189.3125 229.613281 C 190.648438 229.585938 191.910156 229.554688 193.074219 229.527344 C 194.238281 229.5 195.304688 229.472656 196.253906 229.449219 C 197.199219 229.402344 198.023438 229.359375 198.703125 229.324219 C 200.058594 229.253906 200.835938 229.214844 200.835938 229.214844 C 200.835938 229.214844 200.058594 229.265625 198.703125 229.359375 C 198.023438 229.410156 197.203125 229.464844 196.257812 229.53125 C 195.3125 229.570312 194.242188 229.617188 193.078125 229.664062 C 191.914062 229.714844 190.652344 229.765625 189.316406 229.820312 C 187.984375 229.855469 186.574219 229.898438 185.121094 229.9375 C 182.207031 230.027344 179.097656 230.097656 175.992188 230.160156 C 172.882812 230.214844 169.777344 230.273438 166.863281 230.328125 C 163.949219 230.367188 161.230469 230.410156 158.898438 230.441406 C 154.234375 230.496094 151.128906 230.53125 151.128906 230.53125 C 150.886719 230.535156 150.6875 230.339844 150.683594 230.097656 C 150.683594 229.855469 150.875 229.652344 151.117188 229.652344 L 151.128906 229.652344 " fill-opacity="1" fill-rule="nonzero"/><path fill="#170b08" d="M 126.382812 178.445312 C 126.382812 178.445312 126.273438 186.714844 126.164062 194.988281 C 126.152344 196.019531 126.136719 197.054688 126.125 198.070312 C 126.117188 198.578125 126.109375 199.082031 126.101562 199.578125 C 126.113281 200.0625 126.191406 200.542969 126.328125 200.992188 C 126.589844 201.902344 127.078125 202.710938 127.6875 203.328125 C 127.96875 203.664062 128.335938 203.890625 128.652344 204.152344 C 128.832031 204.257812 129.007812 204.359375 129.179688 204.457031 C 129.347656 204.558594 129.515625 204.660156 129.699219 204.722656 C 129.875 204.796875 130.050781 204.871094 130.21875 204.941406 C 130.386719 205.015625 130.554688 205.078125 130.726562 205.117188 C 131.066406 205.210938 131.386719 205.296875 131.6875 205.382812 C 132.304688 205.472656 132.84375 205.585938 133.289062 205.617188 C 134.191406 205.667969 134.703125 205.699219 134.703125 205.699219 C 134.703125 205.699219 134.1875 205.679688 133.289062 205.652344 C 132.835938 205.632812 132.296875 205.535156 131.671875 205.460938 C 131.363281 205.386719 131.039062 205.304688 130.695312 205.21875 C 130.519531 205.1875 130.351562 205.125 130.175781 205.054688 C 130.003906 204.988281 129.824219 204.917969 129.644531 204.851562 C 129.457031 204.789062 129.285156 204.691406 129.105469 204.59375 C 128.925781 204.496094 128.746094 204.394531 128.558594 204.296875 C 128.226562 204.039062 127.847656 203.8125 127.542969 203.472656 C 126.894531 202.847656 126.363281 202.019531 126.0625 201.074219 C 125.910156 200.601562 125.8125 200.105469 125.785156 199.589844 C 125.78125 199.085938 125.773438 198.582031 125.765625 198.070312 C 125.753906 197.054688 125.738281 196.019531 125.726562 194.988281 C 125.617188 186.714844 125.507812 178.445312 125.507812 178.445312 C 125.503906 178.203125 125.699219 178.003906 125.9375 178 C 126.179688 178 126.378906 178.191406 126.382812 178.433594 L 126.382812 178.445312 " fill-opacity="1" fill-rule="nonzero"/><path fill="#170b08" d="M 156.167969 150.097656 L 240.691406 150.972656 L 156.164062 150.972656 C 155.921875 150.972656 155.722656 150.777344 155.722656 150.535156 C 155.722656 150.292969 155.921875 150.097656 156.164062 150.097656 L 156.167969 150.097656 " fill-opacity="1" fill-rule="nonzero"/><path fill="#170b08" d="M 126.910156 152.386719 C 126.734375 152.554688 126.554688 152.765625 126.390625 152.96875 C 126.226562 153.175781 126.070312 153.390625 125.925781 153.613281 C 125.636719 154.0625 125.386719 154.535156 125.199219 155.027344 C 125.011719 155.523438 124.878906 156.035156 124.820312 156.558594 L 124.789062 156.949219 L 124.785156 157.34375 C 124.796875 157.605469 124.816406 157.867188 124.867188 158.128906 C 124.878906 158.257812 124.917969 158.386719 124.945312 158.515625 C 124.972656 158.644531 125.007812 158.773438 125.054688 158.894531 C 125.128906 159.152344 125.234375 159.394531 125.339844 159.640625 C 125.464844 159.875 125.570312 160.121094 125.722656 160.34375 L 125.9375 160.6875 L 126.175781 161.011719 C 126.328125 161.238281 126.519531 161.433594 126.6875 161.644531 C 126.871094 161.847656 127.066406 162.035156 127.253906 162.234375 L 127.859375 162.785156 L 128.5 163.304688 L 128.367188 163.257812 L 145.214844 164.382812 L 128.339844 163.746094 C 128.292969 163.746094 128.246094 163.726562 128.207031 163.699219 L 127.53125 163.183594 L 126.886719 162.628906 C 126.683594 162.425781 126.472656 162.234375 126.277344 162.023438 C 126.089844 161.808594 125.882812 161.605469 125.714844 161.375 L 125.445312 161.03125 L 125.207031 160.671875 C 125.039062 160.433594 124.910156 160.171875 124.769531 159.917969 C 124.648438 159.652344 124.519531 159.386719 124.429688 159.105469 C 124.375 158.96875 124.332031 158.828125 124.296875 158.683594 C 124.261719 158.542969 124.214844 158.402344 124.195312 158.253906 C 124.132812 157.964844 124.101562 157.671875 124.078125 157.375 L 124.070312 156.929688 L 124.09375 156.484375 C 124.140625 155.894531 124.273438 155.3125 124.46875 154.757812 C 124.664062 154.203125 124.921875 153.671875 125.226562 153.171875 C 125.378906 152.921875 125.542969 152.679688 125.71875 152.445312 C 125.898438 152.210938 126.074219 151.988281 126.296875 151.761719 C 126.464844 151.585938 126.742188 151.582031 126.914062 151.75 C 127.089844 151.921875 127.09375 152.199219 126.921875 152.375 L 126.910156 152.386719 " fill-opacity="1" fill-rule="nonzero"/><path fill="#170b08" d="M 197.554688 162.625 L 244.195312 163.417969 L 244.1875 163.417969 C 244.636719 163.378906 245.09375 163.296875 245.535156 163.179688 C 245.757812 163.128906 245.976562 163.050781 246.195312 162.984375 C 246.414062 162.917969 246.621094 162.820312 246.839844 162.738281 C 247.050781 162.65625 247.25 162.542969 247.457031 162.445312 C 247.667969 162.347656 247.855469 162.210938 248.054688 162.097656 C 248.257812 161.984375 248.425781 161.828125 248.609375 161.691406 C 248.699219 161.621094 248.796875 161.554688 248.882812 161.480469 L 249.128906 161.238281 C 249.289062 161.078125 249.464844 160.925781 249.597656 160.734375 C 249.738281 160.550781 249.886719 160.378906 250.015625 160.1875 L 250.363281 159.589844 C 250.492188 159.394531 250.546875 159.164062 250.640625 158.957031 C 250.722656 158.738281 250.832031 158.53125 250.871094 158.304688 L 251.035156 157.628906 C 251.101562 157.40625 251.097656 157.171875 251.128906 156.941406 L 251.199219 156.25 L 251.140625 156.941406 C 251.109375 157.171875 251.121094 157.410156 251.054688 157.632812 L 250.902344 158.3125 C 250.863281 158.542969 250.757812 158.75 250.679688 158.972656 C 250.589844 159.183594 250.539062 159.417969 250.410156 159.613281 L 250.070312 160.222656 C 249.941406 160.417969 249.792969 160.59375 249.65625 160.78125 C 249.523438 160.976562 249.351562 161.132812 249.1875 161.300781 L 248.941406 161.546875 C 248.855469 161.625 248.761719 161.695312 248.667969 161.769531 C 248.484375 161.910156 248.3125 162.070312 248.109375 162.183594 C 247.910156 162.304688 247.722656 162.445312 247.515625 162.546875 C 247.304688 162.648438 247.101562 162.765625 246.886719 162.855469 C 246.671875 162.941406 246.460938 163.042969 246.238281 163.113281 C 246.019531 163.183594 245.800781 163.265625 245.574219 163.320312 C 245.125 163.449219 244.667969 163.539062 244.199219 163.585938 L 244.191406 163.585938 L 197.546875 163.503906 C 197.304688 163.5 197.109375 163.304688 197.109375 163.0625 C 197.109375 162.820312 197.304688 162.621094 197.546875 162.625 L 197.554688 162.625 " fill-opacity="1" fill-rule="nonzero"/><path fill="#170b08" d="M 180.691406 204.160156 L 211.347656 204.820312 L 180.6875 205.039062 C 180.445312 205.039062 180.246094 204.84375 180.246094 204.601562 C 180.242188 204.359375 180.4375 204.160156 180.679688 204.160156 L 180.691406 204.160156 " fill-opacity="1" fill-rule="nonzero"/><path fill="#170b08" d="M 231.921875 203.71875 C 231.921875 203.71875 237.113281 203.738281 242.304688 203.757812 C 242.953125 203.757812 243.601562 203.761719 244.242188 203.761719 C 244.839844 203.75 245.46875 203.617188 246.042969 203.460938 C 246.617188 203.296875 247.160156 203.082031 247.648438 202.828125 C 248.125 202.558594 248.566406 202.269531 248.902344 201.929688 C 248.992188 201.847656 249.074219 201.765625 249.160156 201.683594 C 249.230469 201.59375 249.300781 201.507812 249.367188 201.421875 C 249.4375 201.335938 249.503906 201.25 249.566406 201.167969 C 249.621094 201.078125 249.671875 200.992188 249.71875 200.90625 C 249.9375 200.574219 250.03125 200.238281 250.132812 199.976562 C 250.21875 199.707031 250.242188 199.480469 250.277344 199.335938 C 250.308594 199.183594 250.324219 199.105469 250.324219 199.105469 C 250.324219 199.105469 250.3125 199.183594 250.289062 199.335938 C 250.257812 199.484375 250.246094 199.710938 250.167969 199.988281 C 250.078125 200.257812 249.996094 200.597656 249.789062 200.945312 C 249.742188 201.035156 249.699219 201.128906 249.644531 201.21875 C 249.585938 201.304688 249.519531 201.394531 249.453125 201.484375 C 249.386719 201.578125 249.320312 201.671875 249.25 201.765625 C 249.167969 201.851562 249.085938 201.9375 249 202.027344 C 248.664062 202.394531 248.226562 202.707031 247.746094 203.007812 C 247.253906 203.289062 246.707031 203.53125 246.121094 203.726562 C 245.527344 203.910156 244.921875 204.078125 244.246094 204.121094 C 243.609375 204.144531 242.960938 204.171875 242.3125 204.195312 C 237.125 204.398438 231.9375 204.597656 231.9375 204.597656 C 231.695312 204.609375 231.492188 204.417969 231.484375 204.175781 C 231.472656 203.933594 231.660156 203.730469 231.902344 203.71875 L 231.921875 203.71875 " fill-opacity="1" fill-rule="nonzero"/><path fill="#ffffff" d="M 139.742188 187.902344 C 139.742188 187.902344 139.71875 188.410156 139.796875 189.339844 C 139.871094 190.261719 140.042969 191.578125 140.4375 193.125 C 140.640625 193.894531 140.882812 194.722656 141.21875 195.574219 C 141.542969 196.425781 141.945312 197.304688 142.429688 198.175781 C 142.898438 199.054688 143.492188 199.898438 144.117188 200.734375 C 144.460938 201.132812 144.773438 201.558594 145.152344 201.933594 L 145.699219 202.507812 L 146.289062 203.046875 C 146.667969 203.421875 147.101562 203.734375 147.511719 204.070312 C 147.933594 204.398438 148.378906 204.679688 148.808594 204.984375 C 149.261719 205.246094 149.707031 205.519531 150.160156 205.769531 C 150.621094 205.996094 151.070312 206.234375 151.527344 206.441406 C 151.992188 206.632812 152.449219 206.820312 152.894531 207.003906 C 153.351562 207.15625 153.800781 207.308594 154.238281 207.453125 C 154.671875 207.601562 155.113281 207.695312 155.53125 207.8125 C 155.738281 207.867188 155.945312 207.921875 156.148438 207.976562 C 156.355469 208.015625 156.554688 208.054688 156.753906 208.097656 C 157.148438 208.175781 157.527344 208.25 157.886719 208.320312 C 158.246094 208.382812 158.59375 208.421875 158.917969 208.46875 C 159.566406 208.558594 160.132812 208.636719 160.601562 208.660156 C 161.539062 208.730469 162.078125 208.773438 162.078125 208.773438 C 162.078125 208.773438 161.539062 208.746094 160.597656 208.695312 C 160.128906 208.683594 159.558594 208.621094 158.90625 208.546875 C 158.582031 208.507812 158.234375 208.480469 157.871094 208.425781 C 157.507812 208.363281 157.125 208.296875 156.726562 208.230469 C 156.527344 208.195312 156.324219 208.160156 156.117188 208.125 C 155.910156 208.078125 155.703125 208.027344 155.492188 207.976562 C 155.066406 207.871094 154.625 207.785156 154.179688 207.648438 C 153.734375 207.515625 153.28125 207.375 152.8125 207.230469 C 152.359375 207.054688 151.890625 206.875 151.417969 206.695312 C 150.953125 206.496094 150.488281 206.269531 150.011719 206.050781 C 149.546875 205.8125 149.089844 205.542969 148.621094 205.285156 C 148.179688 204.988281 147.710938 204.714844 147.277344 204.390625 C 146.847656 204.058594 146.398438 203.75 146 203.378906 L 145.382812 202.839844 L 144.804688 202.265625 C 144.410156 201.890625 144.074219 201.460938 143.714844 201.066406 C 143.046875 200.222656 142.414062 199.367188 141.910156 198.472656 C 141.390625 197.589844 140.949219 196.695312 140.597656 195.824219 C 140.226562 194.957031 139.953125 194.109375 139.722656 193.320312 C 139.277344 191.734375 139.0625 190.375 138.960938 189.417969 C 138.910156 188.9375 138.886719 188.558594 138.875 188.296875 C 138.871094 188.164062 138.867188 188.0625 138.867188 187.992188 C 138.863281 187.925781 138.863281 187.890625 138.863281 187.890625 L 138.863281 187.886719 C 138.863281 187.644531 139.054688 187.445312 139.296875 187.445312 C 139.539062 187.441406 139.738281 187.636719 139.742188 187.878906 L 139.742188 187.902344 " fill-opacity="1" fill-rule="nonzero"/><path fill="#ffffff" d="M 205.617188 190.800781 C 205.617188 190.804688 205.738281 191.117188 206.011719 191.671875 C 206.285156 192.222656 206.699219 193.007812 207.28125 193.898438 C 207.566406 194.34375 207.898438 194.8125 208.261719 195.300781 C 208.636719 195.78125 209.035156 196.285156 209.488281 196.773438 C 209.933594 197.269531 210.417969 197.753906 210.9375 198.21875 C 211.460938 198.683594 212.011719 199.128906 212.59375 199.535156 C 212.878906 199.75 213.1875 199.925781 213.480469 200.121094 C 213.785156 200.300781 214.089844 200.476562 214.398438 200.644531 C 215.019531 200.960938 215.648438 201.25 216.273438 201.476562 C 216.898438 201.710938 217.519531 201.890625 218.117188 202.03125 C 218.414062 202.09375 218.707031 202.164062 218.988281 202.214844 C 219.273438 202.257812 219.550781 202.296875 219.816406 202.335938 C 220.347656 202.390625 220.839844 202.4375 221.273438 202.449219 C 221.710938 202.449219 222.09375 202.472656 222.40625 202.449219 C 223.03125 202.417969 223.390625 202.402344 223.390625 202.402344 C 223.390625 202.402344 223.03125 202.433594 222.40625 202.488281 C 222.09375 202.523438 221.710938 202.511719 221.273438 202.53125 C 220.835938 202.535156 220.339844 202.507812 219.800781 202.472656 C 219.535156 202.445312 219.253906 202.414062 218.964844 202.382812 C 218.675781 202.34375 218.378906 202.28125 218.074219 202.230469 C 217.464844 202.113281 216.828125 201.953125 216.183594 201.738281 C 215.535156 201.53125 214.886719 201.265625 214.238281 200.960938 C 213.917969 200.804688 213.597656 200.636719 213.28125 200.464844 C 212.972656 200.273438 212.648438 200.105469 212.351562 199.898438 C 211.738281 199.507812 211.15625 199.070312 210.601562 198.613281 C 210.050781 198.15625 209.53125 197.679688 209.050781 197.1875 C 208.570312 196.703125 208.140625 196.199219 207.734375 195.722656 C 207.34375 195.234375 206.980469 194.765625 206.667969 194.3125 C 206.035156 193.417969 205.574219 192.625 205.269531 192.058594 C 204.964844 191.496094 204.8125 191.144531 204.8125 191.144531 L 204.808594 191.136719 C 204.710938 190.914062 204.8125 190.65625 205.035156 190.558594 C 205.257812 190.460938 205.515625 190.5625 205.613281 190.785156 L 205.617188 190.800781 " fill-opacity="1" fill-rule="nonzero"/><path fill="#170b08" d="M 151.972656 226.535156 C 151.972656 226.535156 152.015625 226.4375 152.140625 226.21875 C 152.199219 226.109375 152.277344 225.984375 152.367188 225.847656 C 152.460938 225.707031 152.558594 225.539062 152.691406 225.375 C 152.820312 225.203125 152.957031 225.011719 153.117188 224.808594 C 153.285156 224.617188 153.464844 224.410156 153.660156 224.1875 C 153.847656 223.960938 154.082031 223.753906 154.3125 223.519531 C 154.429688 223.402344 154.550781 223.285156 154.671875 223.164062 C 154.804688 223.050781 154.9375 222.9375 155.074219 222.820312 C 155.355469 222.59375 155.628906 222.335938 155.941406 222.109375 C 156.253906 221.882812 156.578125 221.648438 156.910156 221.410156 C 157.234375 221.15625 157.613281 220.964844 157.976562 220.734375 C 158.347656 220.523438 158.707031 220.265625 159.113281 220.078125 C 159.910156 219.683594 160.71875 219.242188 161.59375 218.917969 C 162.027344 218.742188 162.460938 218.5625 162.898438 218.386719 C 163.347656 218.242188 163.796875 218.09375 164.246094 217.949219 C 164.695312 217.808594 165.140625 217.648438 165.59375 217.527344 C 166.050781 217.414062 166.503906 217.300781 166.957031 217.191406 C 167.40625 217.082031 167.855469 216.972656 168.296875 216.863281 C 168.742188 216.785156 169.1875 216.707031 169.621094 216.632812 C 170.054688 216.558594 170.480469 216.484375 170.902344 216.410156 C 171.109375 216.375 171.316406 216.339844 171.523438 216.304688 C 171.726562 216.28125 171.929688 216.261719 172.132812 216.238281 C 172.933594 216.152344 173.695312 216.070312 174.394531 215.996094 C 175.09375 215.902344 175.742188 215.894531 176.3125 215.863281 C 176.886719 215.835938 177.382812 215.8125 177.796875 215.792969 C 178.617188 215.753906 179.085938 215.734375 179.085938 215.734375 C 179.085938 215.734375 178.617188 215.769531 177.796875 215.832031 C 177.386719 215.863281 176.890625 215.902344 176.320312 215.945312 C 175.75 215.992188 175.105469 216.019531 174.410156 216.132812 C 173.714844 216.226562 172.960938 216.332031 172.160156 216.441406 C 171.960938 216.46875 171.761719 216.496094 171.554688 216.523438 C 171.351562 216.5625 171.148438 216.605469 170.941406 216.648438 C 170.527344 216.734375 170.101562 216.820312 169.671875 216.90625 C 169.242188 216.996094 168.804688 217.082031 168.363281 217.171875 C 167.929688 217.292969 167.488281 217.414062 167.046875 217.539062 C 166.601562 217.660156 166.15625 217.785156 165.707031 217.90625 C 165.261719 218.039062 164.824219 218.214844 164.382812 218.367188 C 163.945312 218.523438 163.503906 218.679688 163.066406 218.835938 C 162.644531 219.023438 162.222656 219.210938 161.800781 219.394531 C 160.949219 219.738281 160.171875 220.199219 159.402344 220.605469 C 159.011719 220.796875 158.667969 221.058594 158.3125 221.277344 C 157.96875 221.511719 157.605469 221.707031 157.296875 221.960938 C 156.980469 222.203125 156.675781 222.4375 156.378906 222.664062 C 156.082031 222.894531 155.828125 223.148438 155.566406 223.375 C 155.4375 223.492188 155.3125 223.605469 155.191406 223.714844 C 155.078125 223.832031 154.964844 223.949219 154.859375 224.0625 C 154.644531 224.296875 154.425781 224.5 154.253906 224.71875 C 154.078125 224.933594 153.910156 225.132812 153.757812 225.320312 C 153.613281 225.511719 153.492188 225.695312 153.378906 225.855469 C 153.15625 226.179688 152.996094 226.453125 152.90625 226.625 C 152.816406 226.792969 152.765625 226.90625 152.765625 226.90625 C 152.671875 227.128906 152.414062 227.234375 152.191406 227.136719 C 151.96875 227.042969 151.867188 226.785156 151.960938 226.5625 L 151.960938 226.554688 L 151.972656 226.535156 " fill-opacity="1" fill-rule="nonzero"/><path fill="#170b08" d="M 155.285156 227.160156 L 186.382812 227.308594 L 155.292969 228.042969 C 155.050781 228.046875 154.851562 227.855469 154.84375 227.613281 C 154.839844 227.371094 155.03125 227.167969 155.273438 227.160156 L 155.285156 227.160156 " fill-opacity="1" fill-rule="nonzero"/><g fill="#7f4ba3" fill-opacity="1"><g transform="translate(103.8401, 274.982677)"><g><path d="M 0.945312 -22.117188 C 1.109375 -22.019531 1.335938 -21.890625 1.597656 -21.757812 C 2.117188 -21.464844 2.476562 -20.910156 2.476562 -20.324219 L 2.476562 -3.0625 C 2.410156 -2.539062 2.085938 -2.019531 1.597656 -1.792969 C 1.367188 -1.660156 1.109375 -1.53125 0.945312 -1.402344 C 0.390625 -1.007812 0.683594 0 1.367188 0 L 11.433594 0 C 12.117188 0 12.410156 -1.007812 11.855469 -1.402344 C 11.660156 -1.53125 11.5 -1.660156 11.300781 -1.757812 C 10.78125 -2.085938 10.457031 -2.636719 10.457031 -3.191406 L 10.457031 -9.675781 L 11.140625 -9.675781 C 12.769531 -9.640625 14.039062 -9.183594 15.570312 -5.734375 L 16.613281 -3.289062 L 16.578125 -3.289062 L 16.675781 -3.09375 C 16.90625 -2.539062 16.742188 -2.019531 16.1875 -1.757812 C 15.992188 -1.628906 15.765625 -1.53125 15.601562 -1.402344 C 15.046875 -1.007812 15.339844 0 16.027344 0 L 27.199219 0 C 27.882812 0 28.175781 -1.007812 27.621094 -1.402344 C 27.457031 -1.5 27.328125 -1.5625 27.164062 -1.628906 C 26.613281 -1.824219 26.089844 -2.28125 25.828125 -2.832031 L 23.972656 -6.742188 C 22.996094 -9.152344 21.628906 -10.359375 20.359375 -10.585938 C 24.234375 -11.660156 26.480469 -13.617188 26.480469 -16.546875 C 26.480469 -21.238281 20.78125 -23.582031 11.792969 -23.550781 L 1.335938 -23.515625 C 0.683594 -23.515625 0.390625 -22.507812 0.945312 -22.117188 Z M 10.457031 -20.585938 C 10.457031 -21.171875 10.847656 -21.59375 11.433594 -21.59375 C 16.320312 -21.5625 18.5 -19.96875 18.5 -16.515625 C 18.5 -13.09375 16.253906 -11.628906 11.433594 -11.628906 C 10.847656 -11.628906 10.457031 -12.019531 10.457031 -12.605469 Z M 10.457031 -20.585938 "/></g></g></g><g fill="#7f4ba3" fill-opacity="1"><g transform="translate(132.726577, 274.982677)"><g><path d="M 0.390625 -7.621094 C 0.519531 -2.378906 3.941406 0.457031 9.347656 0.457031 C 14.007812 0.457031 17.230469 -1.171875 18.078125 -5.179688 C 18.207031 -5.929688 18.011719 -6.351562 17.359375 -6.449219 C 16.742188 -6.515625 16.351562 -6.1875 16.1875 -5.472656 C 15.734375 -3.421875 14.167969 -2.3125 12.117188 -2.3125 C 10.226562 -2.34375 8.761719 -3.289062 7.851562 -5.667969 C 8.273438 -5.601562 8.792969 -5.570312 9.347656 -5.570312 C 12.929688 -5.570312 18.339844 -7.164062 17.71875 -10.878906 C 17.261719 -13.519531 14.363281 -15.699219 9.804688 -15.699219 C 4.398438 -15.699219 0.261719 -12.898438 0.390625 -7.621094 Z M 8.890625 -13.8125 C 10.75 -14.203125 12.34375 -11.5 11.628906 -9.054688 C 11.171875 -7.394531 8.859375 -7.164062 7.394531 -7.296875 C 6.644531 -10.683594 7.425781 -13.519531 8.890625 -13.8125 Z M 8.890625 -13.8125 "/></g></g></g><g fill="#7f4ba3" fill-opacity="1"><g transform="translate(151.745409, 274.982677)"><g><path d="M 0.8125 -21.464844 C 1.238281 -21.464844 1.792969 -21.5625 2.214844 -21.5625 C 2.671875 -21.5625 2.996094 -21.433594 2.996094 -20.910156 L 2.996094 -3.191406 C 2.996094 -2.605469 2.636719 -2.050781 2.117188 -1.792969 C 1.855469 -1.660156 1.628906 -1.53125 1.464844 -1.402344 C 0.910156 -1.007812 1.207031 0 1.855469 0 L 11.300781 0 C 11.953125 0 12.28125 -1.007812 11.726562 -1.402344 C 11.53125 -1.53125 11.335938 -1.660156 11.171875 -1.757812 C 10.652344 -2.085938 10.324219 -2.636719 10.324219 -3.191406 L 10.324219 -21.074219 C 10.324219 -23.972656 9.25 -24.363281 6.675781 -24.363281 C 4.558594 -24.363281 2.019531 -23.84375 0.585938 -22.996094 C -0.0664062 -22.636719 0.0976562 -21.53125 0.8125 -21.464844 Z M 0.8125 -21.464844 "/></g></g></g><g fill="#7f4ba3" fill-opacity="1"><g transform="translate(164.283509, 274.982677)"><g><path d="M 0.390625 -7.621094 C 0.519531 -2.378906 3.941406 0.457031 9.347656 0.457031 C 14.007812 0.457031 17.230469 -1.171875 18.078125 -5.179688 C 18.207031 -5.929688 18.011719 -6.351562 17.359375 -6.449219 C 16.742188 -6.515625 16.351562 -6.1875 16.1875 -5.472656 C 15.734375 -3.421875 14.167969 -2.3125 12.117188 -2.3125 C 10.226562 -2.34375 8.761719 -3.289062 7.851562 -5.667969 C 8.273438 -5.601562 8.792969 -5.570312 9.347656 -5.570312 C 12.929688 -5.570312 18.339844 -7.164062 17.71875 -10.878906 C 17.261719 -13.519531 14.363281 -15.699219 9.804688 -15.699219 C 4.398438 -15.699219 0.261719 -12.898438 0.390625 -7.621094 Z M 8.890625 -13.8125 C 10.75 -14.203125 12.34375 -11.5 11.628906 -9.054688 C 11.171875 -7.394531 8.859375 -7.164062 7.394531 -7.296875 C 6.644531 -10.683594 7.425781 -13.519531 8.890625 -13.8125 Z M 8.890625 -13.8125 "/></g></g></g><g fill="#7f4ba3" fill-opacity="1"><g transform="translate(183.302341, 274.982677)"><g><path d="M 0.714844 -3.519531 C 0.976562 -1.074219 3.226562 0.457031 6.1875 0.457031 C 8.535156 0.457031 10.8125 -0.554688 11.824219 -2.476562 C 12.183594 -0.554688 14.167969 0.390625 16.578125 0.421875 C 21.53125 0.488281 22.019531 -2.019531 21.238281 -2.214844 C 20.8125 -2.3125 20.457031 -1.726562 19.933594 -1.792969 C 19.378906 -1.855469 19.183594 -2.441406 19.183594 -3.453125 C 19.183594 -4.753906 19.183594 -6.9375 19.21875 -9.183594 C 19.21875 -13.875 15.277344 -15.667969 10.261719 -15.667969 C 5.636719 -15.699219 2.574219 -14.332031 2.441406 -12.34375 C 2.34375 -11.105469 3.746094 -10.488281 5.113281 -10.488281 C 6.253906 -10.488281 7.394531 -10.945312 7.621094 -11.792969 C 7.980469 -13.0625 8.207031 -14.070312 9.871094 -14.039062 C 11.300781 -14.007812 11.792969 -12.832031 11.792969 -10.359375 L 11.792969 -9.25 C 11.203125 -9.445312 10.195312 -9.578125 9.023438 -9.578125 C 5.441406 -9.578125 0.261719 -8.304688 0.714844 -3.519531 Z M 7.914062 -5.40625 C 8.109375 -7.425781 9.28125 -7.882812 10.292969 -7.882812 C 10.945312 -7.882812 11.5625 -7.6875 11.792969 -7.589844 L 11.757812 -5.796875 C 11.726562 -4.105469 11.433594 -2.671875 9.933594 -2.636719 C 8.5 -2.574219 7.785156 -3.8125 7.914062 -5.40625 Z M 7.914062 -5.40625 "/></g></g></g><g fill="#7f4ba3" fill-opacity="1"><g transform="translate(205.349852, 274.982677)"><g><path d="M 0.617188 -2.929688 C 1.824219 -0.0976562 7.003906 0.519531 9.054688 0.519531 C 14.851562 0.519531 17.851562 -1.53125 17.652344 -5.144531 C 17.394531 -10.617188 6.710938 -9.933594 6.871094 -12.898438 C 6.90625 -13.746094 7.882812 -14.203125 9.085938 -14.105469 C 12.214844 -13.84375 11.988281 -10.878906 14.558594 -10.519531 C 15.796875 -10.359375 16.839844 -11.171875 16.613281 -12.410156 C 16.320312 -14.265625 13.617188 -15.570312 9.023438 -15.765625 C 3.941406 -15.992188 0.683594 -13.972656 0.714844 -11.042969 C 0.75 -5.832031 11.335938 -4.886719 11.335938 -2.441406 C 11.335938 -1.5 10.585938 -0.910156 8.890625 -1.171875 C 4.625 -1.824219 5.636719 -5.503906 2.769531 -5.894531 C 0.878906 -6.15625 -0.0976562 -4.558594 0.617188 -2.929688 Z M 0.617188 -2.929688 "/></g></g></g><g fill="#7f4ba3" fill-opacity="1"><g transform="translate(224.04302, 274.982677)"><g><path d="M 0.390625 -7.621094 C 0.519531 -2.378906 3.941406 0.457031 9.347656 0.457031 C 14.007812 0.457031 17.230469 -1.171875 18.078125 -5.179688 C 18.207031 -5.929688 18.011719 -6.351562 17.359375 -6.449219 C 16.742188 -6.515625 16.351562 -6.1875 16.1875 -5.472656 C 15.734375 -3.421875 14.167969 -2.3125 12.117188 -2.3125 C 10.226562 -2.34375 8.761719 -3.289062 7.851562 -5.667969 C 8.273438 -5.601562 8.792969 -5.570312 9.347656 -5.570312 C 12.929688 -5.570312 18.339844 -7.164062 17.71875 -10.878906 C 17.261719 -13.519531 14.363281 -15.699219 9.804688 -15.699219 C 4.398438 -15.699219 0.261719 -12.898438 0.390625 -7.621094 Z M 8.890625 -13.8125 C 10.75 -14.203125 12.34375 -11.5 11.628906 -9.054688 C 11.171875 -7.394531 8.859375 -7.164062 7.394531 -7.296875 C 6.644531 -10.683594 7.425781 -13.519531 8.890625 -13.8125 Z M 8.890625 -13.8125 "/></g></g></g><g fill="#7f4ba3" fill-opacity="1"><g transform="translate(243.061851, 274.982677)"><g><path d="M 2.636719 0 L 12.734375 0 C 13.417969 0 13.714844 -1.007812 13.160156 -1.402344 C 12.964844 -1.53125 12.769531 -1.660156 12.605469 -1.757812 C 12.085938 -2.085938 11.757812 -2.636719 11.757812 -3.191406 L 11.757812 -20.421875 C 11.757812 -20.976562 12.085938 -21.53125 12.605469 -21.855469 C 12.769531 -21.953125 12.964844 -22.085938 13.160156 -22.214844 C 13.714844 -22.605469 13.417969 -23.613281 12.734375 -23.613281 L 2.636719 -23.613281 C 1.988281 -23.613281 1.695312 -22.605469 2.246094 -22.214844 C 2.410156 -22.085938 2.636719 -21.953125 2.898438 -21.824219 C 3.421875 -21.5625 3.777344 -21.007812 3.777344 -20.421875 L 3.777344 -3.191406 C 3.777344 -2.605469 3.421875 -2.050781 2.898438 -1.792969 C 2.636719 -1.660156 2.410156 -1.53125 2.246094 -1.402344 C 1.695312 -1.007812 1.988281 0 2.636719 0 Z M 2.636719 0 "/></g></g></g><g fill="#7f4ba3" fill-opacity="1"><g transform="translate(258.465804, 274.982677)"><g><path d="M 1.824219 -13.519531 L 3.648438 -13.519531 L 3.648438 -4.527344 C 3.648438 -1.238281 5.636719 0.457031 9.382812 0.519531 C 14.363281 0.585938 15.667969 -1.433594 15.277344 -2.117188 C 15.179688 -2.28125 15.015625 -2.3125 14.789062 -2.3125 C 14.167969 -2.3125 13.0625 -1.792969 12.214844 -1.792969 C 11.53125 -1.792969 11.007812 -2.117188 11.007812 -3.355469 L 11.007812 -13.519531 L 13.910156 -13.519531 C 14.398438 -13.519531 14.722656 -13.84375 14.722656 -14.332031 C 14.722656 -14.851562 14.398438 -15.179688 13.910156 -15.179688 L 11.007812 -15.179688 L 11.007812 -21.988281 C 11.007812 -22.574219 10.617188 -22.898438 10.03125 -22.769531 L 6.546875 -22.050781 C 5.992188 -21.921875 5.570312 -21.464844 5.539062 -20.847656 C 5.246094 -18.144531 4.070312 -15.242188 1.660156 -15.179688 L 1.695312 -15.144531 C 1.269531 -15.113281 1.007812 -14.789062 1.007812 -14.363281 L 1.007812 -14.332031 C 1.007812 -13.84375 1.335938 -13.519531 1.824219 -13.519531 Z M 1.824219 -13.519531 "/></g></g></g><path stroke-linecap="butt" transform="matrix(0.75, 0, 0, 0.75, 48.681685, 251.043)" fill="none" stroke-linejoin="miter" d="M 72.887966 0.515583 C 73.096299 0.640583 73.408799 0.812458 73.757758 0.989541 C 74.445258 1.380166 74.924425 2.114541 74.924425 2.901 L 74.924425 25.916626 C 74.835883 26.619751 74.403591 27.307251 73.757758 27.614543 C 73.450466 27.786418 73.096299 27.953085 72.887966 28.135376 C 72.143174 28.651001 72.539008 29.99996 73.450466 29.99996 L 86.872342 29.99996 C 87.7838 29.99996 88.174425 28.651001 87.434842 28.135376 C 87.169217 27.953085 86.955675 27.786418 86.69005 27.65621 C 86.00255 27.223918 85.570259 26.479126 85.570259 25.74996 L 85.570259 17.093709 L 86.481717 17.093709 C 88.653592 17.151001 90.341092 17.755167 92.387967 22.354126 L 93.773384 25.609335 L 93.731717 25.609335 L 93.861926 25.87496 C 94.169217 26.619751 93.945259 27.307251 93.210884 27.65621 C 92.945259 27.828085 92.637967 27.953085 92.429634 28.135376 C 91.684842 28.651001 92.080676 29.99996 92.992134 29.99996 L 107.887968 29.99996 C 108.799427 29.99996 109.190052 28.651001 108.450468 28.135376 C 108.236927 28.005168 108.065052 27.911418 107.846302 27.828085 C 107.10151 27.572876 106.41401 26.958293 106.065052 26.223918 L 103.591093 21.010376 C 102.28901 17.796834 100.466093 16.182251 98.768176 15.885376 C 103.934843 14.458292 106.934843 11.848917 106.934843 7.937458 C 106.934843 1.677041 99.330676 -1.437542 87.351509 -1.395876 L 73.408799 -1.354209 C 72.539008 -1.354209 72.143174 -0.00525042 72.887966 0.515583 Z M 85.570259 2.546833 C 85.570259 1.776 86.085884 1.203083 86.872342 1.203083 C 93.382759 1.24475 96.299426 3.374958 96.299426 7.979125 C 96.299426 12.536417 93.299426 14.499959 86.872342 14.499959 C 86.085884 14.499959 85.570259 13.979125 85.570259 13.192667 Z M 110.658802 19.843709 C 110.841094 26.828085 115.398386 30.604127 122.611928 30.604127 C 128.809845 30.604127 133.117137 28.442668 134.242137 23.098918 C 134.41922 22.098918 134.153595 21.526001 133.289012 21.401001 C 132.460887 21.317668 131.940053 21.749959 131.726512 22.703084 C 131.111928 25.442668 129.033803 26.916626 126.299428 26.916626 C 123.773386 26.869751 121.825469 25.609335 120.606719 22.437459 C 121.169219 22.526001 121.867136 22.578084 122.611928 22.578084 C 127.382761 22.578084 134.591095 20.447876 133.76297 15.494751 C 133.158803 11.973917 129.289011 9.067667 123.216094 9.067667 C 116.002552 9.067667 110.492135 12.802042 110.658802 19.843709 Z M 121.992136 11.583292 C 124.476511 11.062459 126.596303 14.666626 125.643178 17.921834 C 125.039011 20.140584 121.950469 20.447876 120.002552 20.265584 C 119.002552 15.760376 120.044219 11.973917 121.992136 11.583292 Z M 136.580679 1.380166 C 137.153595 1.380166 137.882762 1.24475 138.455679 1.24475 C 139.059845 1.24475 139.497345 1.427041 139.497345 2.114541 L 139.497345 25.74996 C 139.497345 26.520793 139.018179 27.265585 138.320262 27.614543 C 137.971304 27.786418 137.674429 27.953085 137.45047 28.135376 C 136.716095 28.651001 137.111929 29.99996 137.971304 29.99996 L 150.565054 29.99996 C 151.434846 29.99996 151.872346 28.651001 151.137971 28.135376 C 150.872346 27.953085 150.606721 27.786418 150.398388 27.65621 C 149.695263 27.223918 149.262971 26.479126 149.262971 25.74996 L 149.262971 1.901 C 149.262971 -1.968792 147.830679 -2.489626 144.403596 -2.489626 C 141.575471 -2.489626 138.190054 -1.786501 136.283804 -0.6615 C 135.414012 -0.187542 135.627554 1.296833 136.580679 1.380166 Z M 152.73693 19.843709 C 152.914013 26.828085 157.476513 30.604127 164.684847 30.604127 C 170.887972 30.604127 175.195264 28.442668 176.315056 23.098918 C 176.497348 22.098918 176.231723 21.526001 175.361931 21.401001 C 174.533806 21.317668 174.018181 21.749959 173.804639 22.703084 C 173.190056 25.442668 171.111931 26.916626 168.377556 26.916626 C 165.851514 26.869751 163.898389 25.609335 162.679639 22.437459 C 163.242139 22.526001 163.945264 22.578084 164.684847 22.578084 C 169.455681 22.578084 176.669223 20.447876 175.841098 15.494751 C 175.236931 11.973917 171.367139 9.067667 165.289014 9.067667 C 158.08068 9.067667 152.565055 12.802042 152.73693 19.843709 Z M 164.070264 11.583292 C 166.549431 11.062459 168.674431 14.666626 167.716097 17.921834 C 167.111931 20.140584 164.028597 20.447876 162.075472 20.265584 C 161.08068 15.760376 162.117139 11.973917 164.070264 11.583292 Z M 178.528598 25.31246 C 178.877556 28.567668 181.877557 30.604127 185.825473 30.604127 C 188.950474 30.604127 191.997349 29.260377 193.341099 26.703085 C 193.820266 29.260377 196.471307 30.520793 199.679641 30.56246 C 206.2786 30.645793 206.93485 27.307251 205.893183 27.041626 C 205.320266 26.916626 204.846308 27.697876 204.158808 27.614543 C 203.414016 27.53121 203.158808 26.744751 203.158808 25.395793 C 203.158808 23.661418 203.158808 20.755168 203.200475 17.755167 C 203.200475 11.499959 197.945266 9.114542 191.252557 9.114542 C 185.091098 9.067667 181.007765 10.895792 180.830681 13.541625 C 180.700473 15.187459 182.570265 16.015584 184.393182 16.015584 C 185.908807 16.015584 187.434849 15.411417 187.731724 14.276001 C 188.221307 12.5885 188.518182 11.24475 190.731724 11.286417 C 192.643182 11.328084 193.299432 12.885375 193.299432 16.182251 L 193.299432 17.666626 C 192.512974 17.401001 191.169224 17.234334 189.606724 17.234334 C 184.825473 17.234334 177.924431 18.932251 178.528598 25.31246 Z M 188.122349 22.791626 C 188.387974 20.098918 189.950474 19.494751 191.294224 19.494751 C 192.164016 19.494751 192.992141 19.744751 193.299432 19.885376 L 193.257766 22.270793 C 193.216099 24.53121 192.820266 26.43746 190.820265 26.479126 C 188.908807 26.56246 187.955682 24.921835 188.122349 22.791626 Z M 207.799433 26.088501 C 209.398392 29.87496 216.315059 30.697877 219.049434 30.697877 C 226.778601 30.697877 230.773393 27.953085 230.507768 23.140584 C 230.15881 15.843709 215.919225 16.755167 216.132767 12.802042 C 216.174434 11.666625 217.476517 11.062459 219.091101 11.192667 C 223.257768 11.541625 222.950476 15.494751 226.387976 15.973917 C 228.039018 16.182251 229.429643 15.104126 229.122351 13.447875 C 228.726518 10.979125 225.122351 9.239542 219.007767 8.984334 C 212.231725 8.677042 207.882767 11.36975 207.924433 15.270792 C 207.9661 22.229126 222.080684 23.489543 222.080684 26.744751 C 222.080684 28.005168 221.085892 28.78121 218.825476 28.442668 C 213.143184 27.572876 214.486934 22.661418 210.658808 22.140584 C 208.148392 21.791626 206.846308 23.927043 207.799433 26.088501 Z M 232.414018 19.843709 C 232.59631 26.828085 237.153602 30.604127 244.367144 30.604127 C 250.565061 30.604127 254.872353 28.442668 255.997353 23.098918 C 256.174436 22.098918 255.91402 21.526001 255.044228 21.401001 C 254.216103 21.317668 253.69527 21.749959 253.481728 22.703084 C 252.867145 25.442668 250.789019 26.916626 248.054644 26.916626 C 245.528602 26.869751 243.580686 25.609335 242.361936 22.437459 C 242.924436 22.526001 243.622352 22.578084 244.367144 22.578084 C 249.137978 22.578084 256.346311 20.447876 255.518186 15.494751 C 254.91402 11.973917 251.044228 9.067667 244.971311 9.067667 C 237.757769 9.067667 232.247352 12.802042 232.414018 19.843709 Z M 243.747352 11.583292 C 246.231727 11.062459 248.351519 14.666626 247.398394 17.921834 C 246.794227 20.140584 243.705686 20.447876 241.757769 20.265584 C 240.757769 15.760376 241.799435 11.973917 243.747352 11.583292 Z M 260.773395 29.99996 L 274.242146 29.99996 C 275.153604 29.99996 275.533813 28.651001 274.799438 28.135376 C 274.539021 27.953085 274.283813 27.786418 274.059854 27.65621 C 273.372354 27.223918 272.934854 26.479126 272.934854 25.74996 L 272.934854 2.770791 C 272.934854 2.031208 273.372354 1.296833 274.059854 0.864541 C 274.283813 0.723916 274.539021 0.55725 274.799438 0.385375 C 275.533813 -0.145875 275.153604 -1.489626 274.242146 -1.489626 L 260.773395 -1.489626 C 259.903603 -1.489626 259.512978 -0.145875 260.252562 0.385375 C 260.466103 0.55725 260.773395 0.723916 261.122353 0.906208 C 261.815062 1.24475 262.28902 1.984333 262.28902 2.770791 L 262.28902 25.74996 C 262.28902 26.520793 261.815062 27.265585 261.122353 27.614543 C 260.773395 27.786418 260.466103 27.953085 260.252562 28.135376 C 259.512978 28.651001 259.903603 29.99996 260.773395 29.99996 Z M 280.221313 11.973917 L 282.658813 11.973917 L 282.658813 23.968709 C 282.658813 28.34371 285.309855 30.604127 290.304647 30.697877 C 296.940064 30.786418 298.679648 28.09371 298.158814 27.177043 C 298.033814 26.958293 297.809856 26.916626 297.512981 26.916626 C 296.684856 26.916626 295.200481 27.614543 294.080689 27.614543 C 293.169231 27.614543 292.466105 27.177043 292.466105 25.526001 L 292.466105 11.973917 L 296.335897 11.973917 C 296.981731 11.973917 297.419231 11.541625 297.419231 10.895792 C 297.419231 10.192667 296.981731 9.760375 296.335897 9.760375 L 292.466105 9.760375 L 292.466105 0.68225 C 292.466105 -0.104209 291.945272 -0.526084 291.174439 -0.354209 L 286.518188 0.598916 C 285.789022 0.765583 285.216105 1.380166 285.174438 2.208291 C 284.778605 5.812458 283.221313 9.671834 280.007771 9.760375 L 280.049438 9.802042 C 279.486938 9.843709 279.13798 10.276 279.13798 10.848917 L 279.13798 10.895792 C 279.13798 11.541625 279.57548 11.973917 280.221313 11.973917 Z M 280.221313 11.973917 " stroke="#000000" stroke-width="1.628801" stroke-opacity="1" stroke-miterlimit="4"/></svg>